<svg xmlns="http://www.w3.org/2000/svg" width="1600" height="1080" viewBox="0 0 1600 1080" role="img" aria-labelledby="title desc">
<title id="title">Modelo 3D del ordenador de a bordo MotoGear</title>
<desc id="desc">Ilustración técnica isométrica generada desde el STL del prototipo.</desc>
<defs>
<linearGradient id="bg" x1="0" y1="0" x2="1" y2="1"><stop offset="0" stop-color="#080909"/><stop offset="1" stop-color="#181a1b"/></linearGradient>
<radialGradient id="glow" cx="60%" cy="45%" r="65%"><stop offset="0" stop-color="#ff4e00" stop-opacity=".28"/><stop offset="1" stop-color="#ff4e00" stop-opacity="0"/></radialGradient>
<filter id="shadow" x="-20%" y="-20%" width="140%" height="160%"><feDropShadow dx="0" dy="28" stdDeviation="24" flood-color="#000" flood-opacity=".5"/></filter>
</defs>
<rect width="1600" height="1080" rx="72" fill="url(#bg)"/>
<circle cx="1040" cy="500" r="520" fill="url(#glow)"/>
<path d="M0 220H1600M0 540H1600M0 860H1600M320 0V1080M800 0V1080M1280 0V1080" stroke="#fff" stroke-opacity=".035"/>
<rect x="70" y="145" width="1460" height="800" rx="58" fill="#f4f3f0" filter="url(#shadow)"/>
<g transform="translate(100 155)">
<polygon points="980.5,346.9 934.1,323.1 934.1,235.7 980.5,259.4" fill="#59646a" stroke="#111" stroke-opacity=".2" stroke-width=".7"/>
<polygon points="1007.6,249.3 980.5,259.4 934.1,235.7 961.1,225.5" fill="#758087" stroke="#111" stroke-opacity=".2" stroke-width=".7"/>
<polygon points="1007.6,336.7 980.5,346.9 980.5,259.4 1007.6,249.3" fill="#424a4f" stroke="#111" stroke-opacity=".2" stroke-width=".7"/>
<polygon points="574.6,273.7 473.4,311.8 451.5,300.6 552.7,262.5" fill="#758087" stroke="#111" stroke-opacity=".2" stroke-width=".7"/>
<polygon points="574.6,315.4 473.4,353.4 473.4,311.8 574.6,273.7" fill="#424a4f" stroke="#111" stroke-opacity=".2" stroke-width=".7"/>
<polygon points="473.4,353.4 451.5,342.2 451.5,300.6 473.4,311.8" fill="#59646a" stroke="#111" stroke-opacity=".2" stroke-width=".7"/>
<polygon points="1092.2,301.1 985.7,341.1 985.7,164.7 1092.2,124.6" fill="#424a4f" stroke="#111" stroke-opacity=".2" stroke-width=".7"/>
<polygon points="985.7,341.1 933.9,314.6 933.9,138.1 985.7,164.7" fill="#59646a" stroke="#111" stroke-opacity=".2" stroke-width=".7"/>
<polygon points="1092.2,124.6 985.7,164.7 933.9,138.1 1040.4,98.1" fill="#758087" stroke="#111" stroke-opacity=".2" stroke-width=".7"/>
<polygon points="1138.6,324.8 1032.1,364.9 1032.1,188.4 1138.6,148.4" fill="#424a4f" stroke="#111" stroke-opacity=".2" stroke-width=".7"/>
<polygon points="1032.1,364.9 980.2,338.3 980.2,161.9 1032.1,188.4" fill="#59646a" stroke="#111" stroke-opacity=".2" stroke-width=".7"/>
<polygon points="561.8,378.4 504.2,348.9 504.2,203.8 561.8,233.3" fill="#59646a" stroke="#111" stroke-opacity=".2" stroke-width=".7"/>
<polygon points="1138.6,148.4 1032.1,188.4 980.2,161.9 1086.7,121.8" fill="#758087" stroke="#111" stroke-opacity=".2" stroke-width=".7"/>
<polygon points="628.7,353.2 561.8,378.4 561.8,233.3 628.7,208.1" fill="#424a4f" stroke="#111" stroke-opacity=".2" stroke-width=".7"/>
<polygon points="1165.9,441.8 1119.5,418.0 1119.5,330.5 1165.9,354.3" fill="#59646a" stroke="#111" stroke-opacity=".2" stroke-width=".7"/>
<polygon points="628.7,208.1 561.8,233.3 504.2,203.8 571.1,178.6" fill="#758087" stroke="#111" stroke-opacity=".2" stroke-width=".7"/>
<polygon points="1193.0,344.1 1165.9,354.3 1119.5,330.5 1146.5,320.4" fill="#758087" stroke="#111" stroke-opacity=".2" stroke-width=".7"/>
<polygon points="1193.0,431.6 1165.9,441.8 1165.9,354.3 1193.0,344.1" fill="#424a4f" stroke="#111" stroke-opacity=".2" stroke-width=".7"/>
<polygon points="1185.0,348.6 1078.5,388.6 1078.5,212.1 1185.0,172.1" fill="#424a4f" stroke="#111" stroke-opacity=".2" stroke-width=".7"/>
<polygon points="933.7,390.4 825.5,431.1 825.5,182.3 933.7,141.6" fill="#424a4f" stroke="#111" stroke-opacity=".2" stroke-width=".7"/>
<polygon points="1078.5,388.6 1026.6,362.1 1026.6,185.6 1078.5,212.1" fill="#59646a" stroke="#111" stroke-opacity=".2" stroke-width=".7"/>
<polygon points="1185.0,172.1 1078.5,212.1 1026.6,185.6 1133.1,145.6" fill="#758087" stroke="#111" stroke-opacity=".2" stroke-width=".7"/>
<polygon points="710.2,323.9 639.9,350.3 576.0,317.6 646.3,291.2" fill="#758087" stroke="#111" stroke-opacity=".2" stroke-width=".7"/>
<polygon points="825.5,431.1 784.7,410.2 784.7,161.5 825.5,182.3" fill="#59646a" stroke="#111" stroke-opacity=".2" stroke-width=".7"/>
<polygon points="639.9,413.4 576.0,380.7 576.0,317.6 639.9,350.3" fill="#59646a" stroke="#111" stroke-opacity=".2" stroke-width=".7"/>
<polygon points="592.2,349.6 535.8,370.8 385.7,294.0 442.1,272.8" fill="#758087" stroke="#111" stroke-opacity=".2" stroke-width=".7"/>
<polygon points="1068.7,380.1 1033.6,393.3 907.7,328.8 942.7,315.6" fill="#758087" stroke="#111" stroke-opacity=".2" stroke-width=".7"/>
<polygon points="535.8,447.7 385.7,370.9 385.7,294.0 535.8,370.8" fill="#59646a" stroke="#111" stroke-opacity=".2" stroke-width=".7"/>
<polygon points="1033.6,442.5 907.7,378.0 907.7,328.8 1033.6,393.3" fill="#59646a" stroke="#111" stroke-opacity=".2" stroke-width=".7"/>
<polygon points="710.2,386.9 639.9,413.4 639.9,350.3 710.2,323.9" fill="#424a4f" stroke="#111" stroke-opacity=".2" stroke-width=".7"/>
<polygon points="933.7,141.6 825.5,182.3 784.7,161.5 892.9,120.8" fill="#758087" stroke="#111" stroke-opacity=".2" stroke-width=".7"/>
<polygon points="325.8,422.2 289.2,403.5 289.2,306.4 325.8,325.1" fill="#59646a" stroke="#111" stroke-opacity=".2" stroke-width=".7"/>
<polygon points="368.3,406.2 325.8,422.2 325.8,325.1 368.3,309.2" fill="#424a4f" stroke="#111" stroke-opacity=".2" stroke-width=".7"/>
<polygon points="774.2,376.4 719.9,396.8 699.8,386.5 754.1,366.1" fill="#758087" stroke="#111" stroke-opacity=".2" stroke-width=".7"/>
<polygon points="368.3,309.2 325.8,325.1 289.2,306.4 331.7,290.4" fill="#758087" stroke="#111" stroke-opacity=".2" stroke-width=".7"/>
<polygon points="774.2,404.1 719.9,424.6 719.9,396.8 774.2,376.4" fill="#424a4f" stroke="#111" stroke-opacity=".2" stroke-width=".7"/>
<polygon points="719.9,424.6 699.8,414.3 699.8,386.5 719.9,396.8" fill="#59646a" stroke="#111" stroke-opacity=".2" stroke-width=".7"/>
<polygon points="1214.1,433.4 1159.4,405.4 1159.4,310.9 1214.1,338.9" fill="#59646a" stroke="#111" stroke-opacity=".2" stroke-width=".7"/>
<polygon points="1267.0,319.0 1214.1,338.9 1159.4,310.9 1212.3,291.0" fill="#758087" stroke="#111" stroke-opacity=".2" stroke-width=".7"/>
<polygon points="1267.0,413.5 1214.1,433.4 1214.1,338.9 1267.0,319.0" fill="#424a4f" stroke="#111" stroke-opacity=".2" stroke-width=".7"/>
<polygon points="1068.7,429.3 1033.6,442.5 1033.6,393.3 1068.7,380.1" fill="#424a4f" stroke="#111" stroke-opacity=".2" stroke-width=".7"/>
<polygon points="592.2,426.5 535.8,447.7 535.8,370.8 592.2,349.6" fill="#424a4f" stroke="#111" stroke-opacity=".2" stroke-width=".7"/>
<polygon points="1249.8,438.0 576.8,691.1 246.3,522.0 919.4,268.9" fill="#242b2e" stroke="#ff4e00" stroke-opacity=".7" stroke-width="2.4"/>
<polygon points="390.9,423.1 377.8,428.1 377.8,327.2 390.9,322.3" fill="#424a4f" stroke="#111" stroke-opacity=".2" stroke-width=".7"/>
<polygon points="377.8,428.1 371.0,424.6 371.0,323.8 377.8,327.2" fill="#59646a" stroke="#111" stroke-opacity=".2" stroke-width=".7"/>
<polygon points="1015.3,478.5 918.6,428.9 918.6,382.3 1015.3,431.8" fill="#59646a" stroke="#111" stroke-opacity=".2" stroke-width=".7"/>
<polygon points="1043.9,421.1 1015.3,431.8 918.6,382.3 947.1,371.6" fill="#758087" stroke="#111" stroke-opacity=".2" stroke-width=".7"/>
<polygon points="1345.0,427.5 556.7,723.9 55.0,467.1 843.3,170.7" fill="#456158" stroke="#111" stroke-opacity=".2" stroke-width=".7"/>
<polygon points="390.9,322.3 377.8,327.2 371.0,323.8 384.1,318.8" fill="#758087" stroke="#111" stroke-opacity=".2" stroke-width=".7"/>
<polygon points="401.4,471.7 344.5,442.6 344.5,334.2 401.4,363.3" fill="#59646a" stroke="#111" stroke-opacity=".2" stroke-width=".7"/>
<polygon points="468.4,338.1 401.4,363.3 344.5,334.2 411.6,308.9" fill="#758087" stroke="#111" stroke-opacity=".2" stroke-width=".7"/>
<polygon points="1075.5,472.0 1037.1,452.4 1037.1,390.6 1075.5,410.2" fill="#59646a" stroke="#111" stroke-opacity=".2" stroke-width=".7"/>
<polygon points="1112.7,396.2 1075.5,410.2 1037.1,390.6 1074.4,376.6" fill="#758087" stroke="#111" stroke-opacity=".2" stroke-width=".7"/>
<polygon points="468.4,446.5 401.4,471.7 401.4,363.3 468.4,338.1" fill="#424a4f" stroke="#111" stroke-opacity=".2" stroke-width=".7"/>
<polygon points="1043.9,467.7 1015.3,478.5 1015.3,431.8 1043.9,421.1" fill="#424a4f" stroke="#111" stroke-opacity=".2" stroke-width=".7"/>
<polygon points="1112.7,458.0 1075.5,472.0 1075.5,410.2 1112.7,396.2" fill="#424a4f" stroke="#111" stroke-opacity=".2" stroke-width=".7"/>
<polygon points="494.4,466.9 474.3,456.6 474.3,428.9 494.4,439.1" fill="#59646a" stroke="#111" stroke-opacity=".2" stroke-width=".7"/>
<polygon points="505.1,435.1 494.4,439.1 474.3,428.9 485.0,424.9" fill="#758087" stroke="#111" stroke-opacity=".2" stroke-width=".7"/>
<polygon points="505.1,462.9 494.4,466.9 494.4,439.1 505.1,435.1" fill="#424a4f" stroke="#111" stroke-opacity=".2" stroke-width=".7"/>
<polygon points="1247.5,387.3 1103.7,441.4 1057.2,417.6 1200.9,363.5" fill="#758087" stroke="#111" stroke-opacity=".2" stroke-width=".7"/>
<polygon points="442.2,486.5 422.1,476.2 422.1,448.5 442.2,458.8" fill="#59646a" stroke="#111" stroke-opacity=".2" stroke-width=".7"/>
<polygon points="1247.5,458.0 1103.7,512.1 1103.7,441.4 1247.5,387.3" fill="#424a4f" stroke="#111" stroke-opacity=".2" stroke-width=".7"/>
<polygon points="452.9,454.8 442.2,458.8 422.1,448.5 432.8,444.5" fill="#758087" stroke="#111" stroke-opacity=".2" stroke-width=".7"/>
<polygon points="452.9,482.5 442.2,486.5 442.2,458.8 452.9,454.8" fill="#424a4f" stroke="#111" stroke-opacity=".2" stroke-width=".7"/>
<polygon points="278.2,471.4 214.3,495.4 141.2,458.0 205.1,434.0" fill="#758087" stroke="#111" stroke-opacity=".2" stroke-width=".7"/>
<polygon points="1103.7,512.1 1057.2,488.3 1057.2,417.6 1103.7,441.4" fill="#59646a" stroke="#111" stroke-opacity=".2" stroke-width=".7"/>
<polygon points="214.3,521.9 141.2,484.5 141.2,458.0 214.3,495.4" fill="#59646a" stroke="#111" stroke-opacity=".2" stroke-width=".7"/>
<polygon points="278.2,497.8 214.3,521.9 214.3,495.4 278.2,471.4" fill="#424a4f" stroke="#111" stroke-opacity=".2" stroke-width=".7"/>
<polygon points="1034.6,455.5 763.0,557.6 598.7,473.5 870.3,371.4" fill="#758087" stroke="#111" stroke-opacity=".2" stroke-width=".7"/>
<polygon points="1249.8,469.8 576.8,722.9 576.8,691.1 1249.8,438.0" fill="#0d1011" stroke="#111" stroke-opacity=".2" stroke-width=".7"/>
<polygon points="1034.6,494.7 763.0,596.8 763.0,557.6 1034.6,455.5" fill="#424a4f" stroke="#111" stroke-opacity=".2" stroke-width=".7"/>
<polygon points="763.0,596.8 598.7,512.7 598.7,473.5 763.0,557.6" fill="#59646a" stroke="#111" stroke-opacity=".2" stroke-width=".7"/>
<polygon points="576.8,722.9 246.3,553.8 246.3,522.0 576.8,691.1" fill="#15191b" stroke="#111" stroke-opacity=".2" stroke-width=".7"/>
<polygon points="535.6,673.2 303.6,554.5 303.6,472.5 535.6,591.2" fill="#59646a" stroke="#111" stroke-opacity=".2" stroke-width=".7"/>
<polygon points="562.6,581.1 535.6,591.2 303.6,472.5 330.7,462.4" fill="#758087" stroke="#111" stroke-opacity=".2" stroke-width=".7"/>
<polygon points="1345.0,428.6 556.7,725.0 556.7,723.9 1345.0,427.5" fill="#26352f" stroke="#111" stroke-opacity=".2" stroke-width=".7"/>
<polygon points="983.8,430.9 813.3,495.0 813.3,431.8 983.8,367.7" fill="#424a4f" stroke="#111" stroke-opacity=".2" stroke-width=".7"/>
<polygon points="983.8,367.7 813.3,431.8 789.1,419.4 959.6,355.3" fill="#758087" stroke="#111" stroke-opacity=".2" stroke-width=".7"/>
<polygon points="905.5,516.7 828.3,477.1 828.3,373.7 905.5,413.2" fill="#59646a" stroke="#111" stroke-opacity=".2" stroke-width=".7"/>
<polygon points="969.7,389.1 905.5,413.2 828.3,373.7 892.5,349.6" fill="#758087" stroke="#111" stroke-opacity=".2" stroke-width=".7"/>
<polygon points="596.6,610.2 492.6,556.9 492.6,408.2 596.6,461.4" fill="#59646a" stroke="#111" stroke-opacity=".2" stroke-width=".7"/>
<polygon points="556.7,725.0 55.0,468.2 55.0,467.1 556.7,723.9" fill="#33463f" stroke="#111" stroke-opacity=".2" stroke-width=".7"/>
<polygon points="969.7,492.5 905.5,516.7 905.5,413.2 969.7,389.1" fill="#424a4f" stroke="#111" stroke-opacity=".2" stroke-width=".7"/>
<polygon points="813.3,495.0 789.1,482.7 789.1,419.4 813.3,431.8" fill="#59646a" stroke="#111" stroke-opacity=".2" stroke-width=".7"/>
<polygon points="637.1,446.2 596.6,461.4 492.6,408.2 533.1,393.0" fill="#758087" stroke="#111" stroke-opacity=".2" stroke-width=".7"/>
<polygon points="637.1,595.0 596.6,610.2 596.6,461.4 637.1,446.2" fill="#424a4f" stroke="#111" stroke-opacity=".2" stroke-width=".7"/>
<polygon points="562.6,663.0 535.6,673.2 535.6,591.2 562.6,581.1" fill="#424a4f" stroke="#111" stroke-opacity=".2" stroke-width=".7"/>
<polygon points="436.2,683.3 413.0,671.4 413.0,526.5 436.2,538.3" fill="#59646a" stroke="#111" stroke-opacity=".2" stroke-width=".7"/>
<polygon points="463.2,673.1 436.2,683.3 436.2,538.3 463.2,528.2" fill="#424a4f" stroke="#111" stroke-opacity=".2" stroke-width=".7"/>
<polygon points="463.2,528.2 436.2,538.3 413.0,526.5 440.0,516.3" fill="#758087" stroke="#111" stroke-opacity=".2" stroke-width=".7"/>
<line x1="1420.9" y1="497.6" x2="1420.9" y2="200.2" stroke="#ff4e00" stroke-opacity=".32" stroke-width="2"/>
<line x1="1420.9" y1="497.6" x2="851.8" y2="206.4" stroke="#ff4e00" stroke-opacity=".32" stroke-width="2"/>
<line x1="1420.9" y1="497.6" x2="547.6" y2="826.0" stroke="#ff4e00" stroke-opacity=".32" stroke-width="2"/>
<line x1="1420.9" y1="200.2" x2="851.8" y2="-91.1" stroke="#ff4e00" stroke-opacity=".32" stroke-width="2"/>
<line x1="1420.9" y1="200.2" x2="547.6" y2="528.5" stroke="#ff4e00" stroke-opacity=".32" stroke-width="2"/>
<line x1="851.8" y1="206.4" x2="851.8" y2="-91.1" stroke="#ff4e00" stroke-opacity=".32" stroke-width="2"/>
<line x1="851.8" y1="206.4" x2="-21.5" y2="534.8" stroke="#ff4e00" stroke-opacity=".32" stroke-width="2"/>
<line x1="851.8" y1="-91.1" x2="-21.5" y2="237.3" stroke="#ff4e00" stroke-opacity=".32" stroke-width="2"/>
<line x1="547.6" y1="826.0" x2="547.6" y2="528.5" stroke="#ff4e00" stroke-opacity=".32" stroke-width="2"/>
<line x1="547.6" y1="826.0" x2="-21.5" y2="534.8" stroke="#ff4e00" stroke-opacity=".32" stroke-width="2"/>
<line x1="547.6" y1="528.5" x2="-21.5" y2="237.3" stroke="#ff4e00" stroke-opacity=".32" stroke-width="2"/>
<line x1="-21.5" y1="534.8" x2="-21.5" y2="237.3" stroke="#ff4e00" stroke-opacity=".32" stroke-width="2"/>
</g>
<g font-family="Inter,Arial,sans-serif">
<rect x="102" y="72" width="330" height="54" rx="27" fill="#ff4e00"/>
<text x="267" y="106" fill="#fff" font-size="21" font-weight="700" text-anchor="middle" letter-spacing="2">MODELO 3D ACTUAL</text>
<text x="1495" y="104" fill="#fff" fill-opacity=".55" font-size="19" text-anchor="end">Ilustración técnica generada desde el STL del prototipo</text>
<text x="102" y="1018" fill="#fff" font-size="30" font-weight="700">Ordenador de a bordo MotoGear</text>
<text x="1495" y="1018" fill="#fff" fill-opacity=".55" font-size="20" text-anchor="end">ESP32-S3 · pantalla integrada · Kawasaki KDS</text>
</g>
</svg>